<svg width="753" height="409" xmlns="http://www.w3.org/2000/svg" xmlns:xlink="http://www.w3.org/1999/xlink" overflow="hidden"><defs><clipPath id="clip0"><rect x="268" y="116" width="753" height="409"/></clipPath></defs><g clip-path="url(#clip0)" transform="translate(-268 -116)"><path d="M0 0 578.383 320.664" stroke="#FF0000" stroke-width="0.666667" stroke-miterlimit="8" fill="none" fill-rule="evenodd" transform="matrix(-1 0 0 1 857.883 152.5)"/><path d="M0 0 660.035 252.13" stroke="#FF0000" stroke-width="0.666667" stroke-miterlimit="8" fill="none" fill-rule="evenodd" transform="matrix(-1 0 0 1 939.535 205.5)"/><path d="M0 0 654.129 133.2" stroke="#FF0000" stroke-width="0.666667" stroke-miterlimit="8" fill="none" fill-rule="evenodd" transform="matrix(-1 0 0 1 934.629 309.5)"/><path d="M976.125 464.691 281.5 418.5" stroke="#FF0000" stroke-width="0.666667" stroke-miterlimit="8" fill="none" fill-rule="evenodd"/><path d="M345.868 478.835 297.682 458.019 310.078 382.551 358.264 403.368Z" stroke="#000000" stroke-width="0.666667" stroke-miterlimit="8" fill="#FFFFFF" fill-rule="evenodd"/><path d="M0 0 697.871 96.0741" stroke="#FF0000" stroke-width="0.666667" stroke-miterlimit="8" fill="none" fill-rule="evenodd" transform="matrix(-1 0 0 1 978.371 141.5)"/><path d="M950.029 497.554 280.5 184.5" stroke="#FF0000" stroke-width="0.666667" stroke-miterlimit="8" fill="none" fill-rule="evenodd"/><path d="M979.625 330.237 280.5 210.5" stroke="#FF0000" stroke-width="0.666667" stroke-miterlimit="8" fill="none" fill-rule="evenodd"/><path d="M1020.79 228.444 280.5 224.5" stroke="#FF0000" stroke-width="0.666667" stroke-miterlimit="8" fill="none" fill-rule="evenodd"/><path d="M363.945 224.728C364.069 223.167 365.435 222.002 366.996 222.127 368.556 222.251 369.721 223.617 369.597 225.177 369.473 226.738 368.107 227.902 366.546 227.778 364.986 227.654 363.821 226.288 363.945 224.728Z" stroke="#000000" stroke-width="0.333333" stroke-miterlimit="8" fill="#8FAADC" fill-rule="evenodd"/><path d="M0 0 44.974 91.1891" stroke="#000000" stroke-width="0.666667" stroke-miterlimit="8" fill="none" fill-rule="evenodd" transform="matrix(-0.989059 0.147519 0.147519 0.989059 321.134 166.125)"/><path d="M0 0 578.383 320.664" stroke="#FF0000" stroke-width="0.666667" stroke-miterlimit="8" fill="none" fill-rule="evenodd" transform="matrix(-1 0 0 1 906.883 125.5)"/><path d="M1009.67 467.878 335.5 422.5" stroke="#FF0000" stroke-width="0.666667" stroke-miterlimit="8" fill="none" fill-rule="evenodd"/><path d="M0 0 654.129 133.2" stroke="#FF0000" stroke-width="0.666667" stroke-miterlimit="8" fill="none" fill-rule="evenodd" transform="matrix(-1 0 0 1 976.629 300.5)"/><path d="M0 0 660.035 252.13" stroke="#FF0000" stroke-width="0.666667" stroke-miterlimit="8" fill="none" fill-rule="evenodd" transform="matrix(-1 0 0 1 977.535 191.5)"/><path d="M364.339 425.168C363.89 423.668 364.742 422.088 366.242 421.639 367.742 421.19 369.321 422.042 369.77 423.542 370.219 425.042 369.367 426.621 367.867 427.07 366.368 427.519 364.788 426.667 364.339 425.168Z" stroke="#000000" stroke-width="0.333333" stroke-miterlimit="8" fill="#8FAADC" fill-rule="evenodd"/><path d="M0 0 56.9662 377.6" stroke="#000000" stroke-width="0.666667" stroke-miterlimit="8" fill="none" fill-rule="evenodd" transform="matrix(-0.989059 0.147519 0.147519 0.989059 280.876 141.524)"/><path d="M0 0 28.8995 191.695" stroke="#000000" stroke-width="0.666667" stroke-miterlimit="8" stroke-dasharray="5.33333 2" fill="none" fill-rule="evenodd" transform="matrix(-0.989059 0.147519 0.147519 0.989059 366.546 227.778)"/><text font-family="DengXian,DengXian_MSFontService,sans-serif" font-weight="400" font-size="13" transform="translate(307.214 308)">平行</text><text font-family="DengXian,DengXian_MSFontService,sans-serif" font-weight="400" font-size="13" transform="translate(323.731 168)">矫正前</text><text font-family="DengXian,DengXian_MSFontService,sans-serif" font-weight="400" font-size="13" transform="translate(277.721 134)">矫正后</text><path d="M288.167 314.167 361.332 314.167 361.332 314.833 288.167 314.833ZM289.5 318.5 281.5 314.5 289.5 310.5ZM359.998 310.5 367.998 314.5 359.998 318.5Z" fill="#4472C4"/></g></svg>