<svg width="841" height="409" xmlns="http://www.w3.org/2000/svg" xmlns:xlink="http://www.w3.org/1999/xlink" overflow="hidden"><defs><clipPath id="clip0"><rect x="180" y="116" width="841" height="409"/></clipPath></defs><g clip-path="url(#clip0)" transform="translate(-180 -116)"><path d="M0 0 761.203 167.078" stroke="#FF0000" stroke-width="0.666667" stroke-miterlimit="8" fill="none" fill-rule="evenodd" transform="matrix(-0.99685 -0.0793099 -0.0793099 0.99685 977.898 140.683)"/><path d="M949.556 496.913 197.63 145.616" stroke="#FF0000" stroke-width="0.666667" stroke-miterlimit="8" fill="none" fill-rule="evenodd"/><path d="M979.151 329.387 193.672 195.364" stroke="#FF0000" stroke-width="0.666667" stroke-miterlimit="8" fill="none" fill-rule="evenodd"/><path d="M0 0 819.588 61.8654" stroke="#FF0000" stroke-width="0.666667" stroke-miterlimit="8" fill="none" fill-rule="evenodd" transform="matrix(-0.99685 -0.0793099 -0.0793099 0.99685 1020.31 227.86)"/><path d="M363.945 224.728C364.069 223.167 365.435 222.002 366.996 222.127 368.556 222.251 369.721 223.617 369.597 225.177 369.473 226.738 368.107 227.902 366.546 227.778 364.986 227.654 363.821 226.288 363.945 224.728Z" stroke="#000000" stroke-width="0.333333" stroke-miterlimit="8" fill="#8FAADC" fill-rule="evenodd"/><path d="M0 0 44.974 91.1891" stroke="#000000" stroke-width="0.666667" stroke-miterlimit="8" fill="none" fill-rule="evenodd" transform="matrix(-0.989059 0.147519 0.147519 0.989059 321.134 166.125)"/><path d="M0 0 761.203 167.078" stroke="#FF0000" stroke-width="0.666667" stroke-miterlimit="8" fill="none" fill-rule="evenodd" transform="matrix(-0.958003 0.286757 0.286757 0.958003 906.282 124.669)"/><path d="M1008.76 467.017 180.668 411.595" stroke="#FF0000" stroke-width="0.666667" stroke-miterlimit="8" fill="none" fill-rule="evenodd"/><path d="M975.729 300.134 194.978 459.404" stroke="#FF0000" stroke-width="0.666667" stroke-miterlimit="8" fill="none" fill-rule="evenodd"/><path d="M0 0 819.588 61.8654" stroke="#FF0000" stroke-width="0.666667" stroke-miterlimit="8" fill="none" fill-rule="evenodd" transform="matrix(-0.958003 0.286757 0.286757 0.958003 977.368 190.592)"/><path d="M364.339 425.168C363.89 423.668 364.742 422.088 366.242 421.639 367.742 421.19 369.321 422.042 369.77 423.542 370.219 425.042 369.367 426.621 367.867 427.07 366.368 427.519 364.788 426.667 364.339 425.168Z" stroke="#000000" stroke-width="0.333333" stroke-miterlimit="8" fill="#8FAADC" fill-rule="evenodd"/><path d="M289.015 389.17 314.776 490.583" stroke="#000000" stroke-width="0.666667" stroke-miterlimit="8" fill="none" fill-rule="evenodd"/><path d="M0 0 56.9662 377.6" stroke="#000000" stroke-width="0.666667" stroke-miterlimit="8" fill="none" fill-rule="evenodd" transform="matrix(-0.989059 0.147519 0.147519 0.989059 280.876 141.524)"/><path d="M0 0 28.8995 191.695" stroke="#000000" stroke-width="0.666667" stroke-miterlimit="8" stroke-dasharray="5.33333 2" fill="none" fill-rule="evenodd" transform="matrix(-0.989059 0.147519 0.147519 0.989059 366.546 227.778)"/><rect x="298" y="291" width="46" height="26" fill="#FFFFFF"/><text font-family="DengXian,DengXian_MSFontService,sans-serif" font-weight="400" font-size="13" transform="translate(307.214 308)">平行</text><text font-family="DengXian,DengXian_MSFontService,sans-serif" font-weight="400" font-size="13" transform="translate(323.731 168)">矫正前</text><text font-family="DengXian,DengXian_MSFontService,sans-serif" font-weight="400" font-size="13" transform="translate(277.721 134)">矫正后</text><path d="M288.167 314.167 361.332 314.167 361.332 314.833 288.167 314.833ZM289.5 318.5 281.5 314.5 289.5 310.5ZM359.998 310.5 367.998 314.5 359.998 318.5Z" fill="#4472C4"/></g></svg>