<svg width="426" height="200" xmlns="http://www.w3.org/2000/svg" xmlns:xlink="http://www.w3.org/1999/xlink" overflow="hidden"><g transform="translate(-395 -310)"><path d="M734 343 734 375.852" stroke="#000000" stroke-width="4" stroke-miterlimit="8" fill="none" fill-rule="evenodd"/><path d="M0 0 25.625 0.000104987" stroke="#000000" stroke-width="2" stroke-miterlimit="8" fill="none" fill-rule="evenodd" transform="matrix(-1 0 0 1 759.625 359)"/><path d="M762 362 762 482.697 760 482.697 760 362ZM766.531 475.199 761 484.68 755.47 475.199C755.191 474.722 755.352 474.11 755.83 473.832 756.307 473.554 756.919 473.715 757.197 474.192L761.864 482.192 760.136 482.192 764.803 474.192C765.081 473.715 765.694 473.554 766.171 473.832 766.648 474.11 766.809 474.722 766.531 475.199Z"/><text font-family="Cambria Math,Cambria Math_MSFontService,sans-serif" font-weight="400" font-size="24" transform="translate(612.187 446)">𝒁</text><text font-family="Cambria Math,Cambria Math_MSFontService,sans-serif" font-weight="400" font-size="18" transform="translate(627.353 450)">𝑷</text><path d="M654 437 757.966 437 757.966 439 654 439ZM750.47 432.47 759.95 438 750.47 443.531C749.993 443.809 749.38 443.648 749.102 443.171 748.824 442.694 748.985 442.081 749.462 441.803L757.462 437.136 757.462 438.864 749.462 434.197C748.985 433.919 748.824 433.307 749.102 432.83 749.38 432.353 749.993 432.191 750.47 432.47Z"/><path d="M473.329 439.325C472.665 437.907 473.276 436.22 474.694 435.556 476.112 434.892 477.799 435.503 478.463 436.92 479.127 438.338 478.516 440.026 477.098 440.69 475.681 441.354 473.993 440.743 473.329 439.325Z" stroke="#000000" stroke-width="0.333333" stroke-miterlimit="8" fill="#FF0000" fill-rule="evenodd"/><path d="M0.00464618-0.999989 334.772 0.55542 334.763 2.5554-0.00464618 0.999989ZM327.3-4.00979 336.755 1.56464 327.248 7.05098C326.77 7.32704 326.158 7.16306 325.882 6.68472 325.606 6.20638 325.77 5.59482 326.249 5.31876L334.27 0.689309 334.262 2.41685 326.284-2.28694C325.808-2.56743 325.65-3.18049 325.93-3.65624 326.211-4.132 326.824-4.29029 327.3-4.00979Z" transform="matrix(-1 0 0 1 758.75 359)"/><path d="M0 0 280.617 75.4261" stroke="#ED7D31" stroke-width="1.33333" stroke-miterlimit="8" fill="none" fill-rule="evenodd" transform="matrix(-1 0 0 1 759.117 361.5)"/><path d="M758.5 360C758.5 358.619 759.843 357.5 761.5 357.5 763.157 357.5 764.5 358.619 764.5 360 764.5 361.381 763.157 362.5 761.5 362.5 759.843 362.5 758.5 361.381 758.5 360Z" stroke="#000000" stroke-width="0.333333" stroke-miterlimit="8" fill="#8FAADC" fill-rule="evenodd"/><path d="M9.01175e-07-1 114.521-0.999897 114.521 1.0001-9.01175e-07 1ZM107.024-5.53035 116.505 0.000104914 107.024 5.53054C106.547 5.80882 105.935 5.64769 105.656 5.17063 105.378 4.69358 105.539 4.08126 106.016 3.80298L114.016-0.863676 114.016 0.863882 106.016-3.80279C105.539-4.08107 105.378-4.69339 105.656-5.17044 105.935-5.64749 106.547-5.80863 107.024-5.53035Z" transform="matrix(-1 0 0 1 599.5 438)"/><path d="M6.66667-0.66664 20.0431-0.666588 20.043 0.666745 6.66666 0.666693ZM7.99998 4.00003 0 0 8.00002-3.99997ZM18.7097-3.99993 26.7097 0.000104987 18.7097 4.00007Z" fill="#A5A5A5" transform="matrix(-1 0 0 1 761.21 349.5)"/><text font-family="Cambria Math,Cambria Math_MSFontService,sans-serif" font-weight="400" font-size="24" transform="translate(745.35 337)">𝒇</text><path d="M0.666667-3.88412e-06 0.666733 11.3532-0.666601 11.3532-0.666667 3.88412e-06ZM4.00006 10.0198 0.000104987 18.0198-3.99994 10.0199Z" fill="#A5A5A5" transform="matrix(1 0 0 -1 729.5 390.52)"/><path d="M730.167 340.5 730.167 351.726 728.833 351.726 728.833 340.5ZM733.5 350.392 729.5 358.392 725.5 350.392Z" fill="#A5A5A5"/><text font-family="Cambria Math,Cambria Math_MSFontService,sans-serif" font-weight="400" font-size="24" transform="translate(703.364 351)">𝒗</text><text font-family="Cambria Math,Cambria Math_MSFontService,sans-serif" font-weight="400" font-size="18" transform="translate(717.697 356)">𝒍</text><path d="M0.666676 6.66665 0.666762 67.4094-0.666571 67.4094-0.666657 6.66666ZM-3.99999 8.00001 0 0 4.00001 7.99999ZM4.00009 66.076 0.000104987 74.076-3.99991 66.076Z" fill="#FF0000" transform="matrix(1 0 0 -1 769.5 438.576)"/><text font-family="Cambria Math,Cambria Math_MSFontService,sans-serif" font-weight="400" font-size="24" transform="translate(778.603 408)">𝒀</text><text font-family="Cambria Math,Cambria Math_MSFontService,sans-serif" font-weight="400" font-size="18" transform="translate(793.77 413)">𝑷</text><text font-family="Cambria Math,Cambria Math_MSFontService,sans-serif" font-weight="400" font-size="24" transform="translate(765.226 497)">𝒀</text><text font-family="Cambria Math,Cambria Math_MSFontService,sans-serif" font-weight="400" font-size="24" transform="translate(408.214 355)">𝒁</text></g></svg>