<svg width="1630" height="1244" xmlns="http://www.w3.org/2000/svg" xmlns:xlink="http://www.w3.org/1999/xlink" xml:space="preserve" overflow="hidden"><defs><clipPath id="clip0"><rect x="1706" y="848" width="1630" height="1244"/></clipPath></defs><g clip-path="url(#clip0)" transform="translate(-1706 -848)"><rect x="1758.5" y="900.5" width="962" height="961" stroke="#385D8A" stroke-width="9.16667" stroke-linejoin="round" stroke-miterlimit="10" fill="#4F81BD"/><rect x="1940.5" y="1082.5" width="780" height="779" stroke="#385D8A" stroke-width="9.16667" stroke-linejoin="round" stroke-miterlimit="10" fill="#4F81BD"/><rect x="2421.5" y="1562.5" width="299" height="299" stroke="#385D8A" stroke-width="9.16667" stroke-linejoin="round" stroke-miterlimit="10" fill="#4F81BD"/><path d="M1940.5 848.5 1940.5 1927.35" stroke="#BE4B48" stroke-width="3.4375" stroke-linejoin="round" stroke-miterlimit="10" fill="none" fill-rule="evenodd"/><path d="M2421.5 848.5 2421.5 1939.96" stroke="#BE4B48" stroke-width="3.4375" stroke-linejoin="round" stroke-miterlimit="10" fill="none" fill-rule="evenodd"/><path d="M1706.5 1562.5 2720 1562.5" stroke="#BE4B48" stroke-width="3.4375" stroke-linejoin="round" stroke-miterlimit="10" fill="none" fill-rule="evenodd"/><path d="M1706.5 1082.5 2778.99 1082.5" stroke="#BE4B48" stroke-width="3.4375" stroke-linejoin="round" stroke-miterlimit="10" fill="none" fill-rule="evenodd"/><path d="M2751 1082C2766.46 1082 2779 1118.87 2779 1164.35L2779 1389.15C2779 1434.63 2791.54 1471.5 2807 1471.5 2791.54 1471.5 2779 1508.37 2779 1553.85L2779 1778.65C2779 1824.13 2766.46 1861 2751 1861" stroke="#BE4B48" stroke-width="10.3125" stroke-linejoin="round" stroke-miterlimit="10" fill="none" fill-rule="evenodd"/><text font-family="Calibri,Calibri_MSFontService,sans-serif" font-weight="400" font-size="83" transform="matrix(1 0 0 1 2839.78 1496)">Window_size</text><path d="M2720 1887C2720 1902.46 2686.53 1915 2645.25 1915L2645.25 1915C2603.97 1915 2570.5 1927.54 2570.5 1943 2570.5 1927.54 2537.03 1915 2495.75 1915L2495.75 1915C2454.47 1915 2421 1902.46 2421 1887" stroke="#BE4B48" stroke-width="10.3125" stroke-linejoin="round" stroke-miterlimit="10" fill="none" fill-rule="evenodd"/><text font-family="Calibri,Calibri_MSFontService,sans-serif" font-weight="400" font-size="83" transform="matrix(1 0 0 1 2409.83 2020)">Shift_size<tspan font-size="83" x="-582.135" y="-1002">0</tspan><tspan font-size="83" x="-255.533" y="-1002">1</tspan><tspan font-size="83" x="141.716" y="-1002">2</tspan><tspan font-size="83" x="-581.576" y="-671">3</tspan><tspan font-size="83" x="-251.871" y="-671">4</tspan><tspan font-size="83" x="141.716" y="-671">5</tspan><tspan font-size="83" x="-582.135" y="-281">6</tspan><tspan font-size="83" x="-255.533" y="-281">7</tspan><tspan font-size="83" x="143.24" y="-281">8</tspan></text></g></svg>