<svg id="Layer_1" data-name="Layer 1" xmlns="http://www.w3.org/2000/svg" viewBox="0 0 517.5 182.51"><defs><style>.cls-1,.cls-4{fill:#ea2328;}.cls-1,.cls-2{fill-rule:evenodd;}.cls-2,.cls-3{fill:#fff;}</style></defs><title>Artboard 1</title><path id="Logo-Icon" class="cls-1" d="M118.59,103.68a8.61,8.61,0,0,1-7.25,8.88C103,114,85.61,114.91,71,114.91s-32-.89-40.35-2.35c-4.78-.83-7.25-4.65-7.25-8.88V76a9.21,9.21,0,0,1,7.25-8.89,92.25,92.25,0,0,1,12.65-.83,3.15,3.15,0,0,1,3.07,3.21c0,.05,0,.11,0,.16V89c8.58,0,16-.51,24.65-.51s16,.51,24.62.51V69.65a3.14,3.14,0,0,1,2.9-3.36h.16a93.86,93.86,0,0,1,12.65.83A9.21,9.21,0,0,1,118.59,76ZM71,20.38C32.11,20.38.58,52.12.58,91.26S32.11,162.13,71,162.13s70.41-31.73,70.41-70.87S109.88,20.38,71,20.38Z"/><path id="Fill-1" class="cls-2" d="M195.66,79.24c-17.35,0-26.06-12.69-26.06-26.64s9-26.48,26.23-26.48c6.61,0,11.3,1.46,15.27,4.09l-4.94,8.2a18,18,0,0,0-10.5-3c-9.28,0-14.27,7.51-14.27,16.86,0,9.64,4.76,17.55,14.44,17.55a17.69,17.69,0,0,0,11.38-3.9l4.55,7.89c-2.58,2.36-8.71,5.41-16.1,5.41"/><path id="Fill-3" class="cls-2" d="M232.66,79.24c-12.95,0-18.66-9.88-18.66-19.58s5.63-19.82,18.58-19.82,18.87,9.79,18.87,19.5c0,9.54-5.77,19.9-18.79,19.9m-.21-31.55c-5.57,0-7.37,4.73-7.37,11.65s2.18,11.89,7.75,11.89,7.54-4.64,7.54-11.57-2.3-12-7.92-12"/><path id="Fill-5" class="cls-2" d="M267.85,40.76v24.1c0,3.7,1.27,5.54,4.83,5.54,3.74,0,6.6-3.6,7.36-4.52V40.76H290.5V67.28a56.42,56.42,0,0,0,1,11H281.2a27.21,27.21,0,0,1-.76-5,14.77,14.77,0,0,1-11.92,5.91c-8.17,0-11.13-5.31-11.13-12.21V40.76Z"/><path id="Fill-7" class="cls-2" d="M316.13,79.24c-11.94,0-19.35-7.91-19.35-19.66,0-12.62,8.32-19.74,19.65-19.74,6,0,9.59,1.81,11.34,3L324.45,50a13.53,13.53,0,0,0-7.67-2.18c-5.82,0-8.91,4.56-8.91,11.4S310.82,71,317,71a14.52,14.52,0,0,0,7.9-2.23l3.17,7.06c-1.75,1.13-5.16,3.35-11.94,3.35"/><path id="Fill-9" class="cls-2" d="M356,78.31V54.21c0-3.69-1.28-5.54-4.77-5.54-3.8,0-6.67,3.54-7.42,4.54v25.1H333.38V22.88h10.47V45.25a15,15,0,0,1,11.52-5.41c8.17,0,11.13,5.27,11.13,12.22V78.31Z"/><path id="Fill-11" class="cls-2" d="M385.48,22.88V43.7a13,13,0,0,1,9-3.87c9.2,0,15.72,6.39,15.72,19.43s-8.57,20-19.79,20c-8.45,0-13.61-2.13-15.43-3V22.88Zm0,47.27a14,14,0,0,0,5,.81c5.41,0,8.7-4,8.7-11.7,0-6.95-2.32-11.07-7.59-11.07A8.45,8.45,0,0,0,385.48,51Z"/><path id="Fill-13" class="cls-2" d="M436.22,78.31a19.38,19.38,0,0,1-.63-4,13.36,13.36,0,0,1-10.35,4.91c-6.32,0-11.22-3.85-11.22-10.61,0-9.76,9.89-13.36,19.75-13.36H435v-2c0-3.11-1.25-5-5.91-5a15.6,15.6,0,0,0-9.4,3.5l-4.51-6.42c2.23-2,7.17-5.43,15.13-5.43,10.27,0,15.09,4,15.09,14V67a52.82,52.82,0,0,0,1.07,11.29ZM435,61.76h-1.27c-5.75,0-9.73,1.73-9.73,6,0,2.67,2.11,3.83,4.41,3.83A8.74,8.74,0,0,0,435,68.42Z"/><path id="Fill-15" class="cls-2" d="M464.26,79.24c-6.71,0-11-2-13.25-3.55l3.49-7.38a17.29,17.29,0,0,0,9.13,3.07c3.81,0,6-1.09,6-3.23,0-2.46-4.2-3.12-9.46-5.67s-8.17-5.4-8.17-11c0-7.11,5.56-11.59,14-11.59a22.7,22.7,0,0,1,11.94,3L474.32,50a15.35,15.35,0,0,0-7.9-2.35c-3.53,0-5,1.25-5,3.17,0,2.47,3.41,3.07,7.65,4.8,5.85,2.39,10,5.16,10,11.47,0,8-5.6,12.11-14.8,12.11"/><path id="Fill-17" class="cls-2" d="M503.3,71.38a18.73,18.73,0,0,0,9.61-2.56l3.34,6.8c-2.47,1.4-6.25,3.62-13.92,3.62-12.45,0-19.54-7.88-19.54-19.89s8.15-19.52,18.46-19.52c11.68,0,17.32,8.23,16.08,22.26H494c.49,5.6,3.34,9.29,9.32,9.29Zm4-16.41c-.08-4.16-1.71-7.53-6.19-7.53-4.14,0-6.49,2.67-7.18,7.53Z"/><rect class="cls-3" x="178.36" y="97.82" width="330.38" height="4.35"/><path class="cls-4" d="M177.82,119h6.42l21.14,27.28V119h6.82v39.45h-5.8l-21.76-28.07v28.07h-6.82Z"/><path class="cls-4" d="M228.38,143.73v-.11a15.87,15.87,0,1,1,31.74-.11v.11a15.58,15.58,0,0,1-15.63,15.51h-.37a15.4,15.4,0,0,1-15.74-15Zm24.92,0v-.11c0-5.24-3.78-9.58-9.14-9.58s-9,4.28-9,9.47v.11c0,5.19,3.78,9.53,9.08,9.53C249.8,153.15,253.3,148.86,253.3,143.73Z"/><path class="cls-4" d="M276.3,119h29.25v6.2H283.23v10.26H303v6.25H283.23v10.54h22.61v6.2H276.3Z"/><path class="cls-4" d="M358.09,159.63l-4.73-4.23a20.51,20.51,0,0,1-12,3.72c-12.12,0-20.57-9.19-20.57-20.29v-.11a20.2,20.2,0,0,1,20-20.41c.23,0,.45,0,.68,0,12.12,0,20.58,9.19,20.58,20.29v.12a20.31,20.31,0,0,1-4,12.11l4.51,3.84ZM348.28,151l-6.82-5.86,4.46-5.08,6.93,6.32a14.91,14.91,0,0,0,1.92-7.5v-.11c0-7.67-5.58-14-13.42-14s-13.3,6.2-13.3,13.86v.12c0,7.66,5.58,14,13.41,14A13.57,13.57,0,0,0,348.28,151Z"/><path class="cls-4" d="M378.27,141.7V119h6.94v22.43c0,7.33,3.77,11.22,10,11.22s9.93-3.67,9.93-10.94V119H412v22.37c0,11.79-6.65,17.71-17,17.71S378.27,153.15,378.27,141.7Z"/><path class="cls-4" d="M442.59,118.7H449l17.36,39.74H459l-4-9.52H436.39l-4.06,9.52h-7.1Zm9.92,24.07L445.69,127l-6.76,15.78Z"/><path class="cls-4" d="M481.6,119h6.94v33.14h20.74v6.31H481.6Z"/></svg>