<svg width="1142" height="430" xmlns="http://www.w3.org/2000/svg" xmlns:xlink="http://www.w3.org/1999/xlink" overflow="hidden"><defs><clipPath id="clip0"><path d="M69 145 1211 145 1211 575 69 575Z" fill-rule="evenodd" clip-rule="evenodd"/></clipPath></defs><g clip-path="url(#clip0)" transform="translate(-69 -145)"><rect x="70.5001" y="274.5" width="343" height="172" stroke="#000000" stroke-miterlimit="8" fill="#FFFFFF"/><text font-family="DengXian,DengXian_MSFontService,sans-serif" font-weight="400" font-size="24" transform="translate(204.674 368)">FC<tspan x="26.3333" y="0">网络</tspan></text><rect x="866.5" y="274.5" width="344" height="172" stroke="#000000" stroke-miterlimit="8" fill="#FFFFFF"/><text font-family="DengXian,DengXian_MSFontService,sans-serif" font-weight="400" font-size="24" transform="translate(1000.85 368)">FC<tspan x="26.3333" y="0">网络</tspan></text><path d="M500.5 360.5C500.5 242.311 563.18 146.5 640.5 146.5 717.82 146.5 780.5 242.311 780.5 360.5 780.5 478.689 717.82 574.5 640.5 574.5 563.18 574.5 500.5 478.689 500.5 360.5Z" stroke="#000000" stroke-miterlimit="8" fill="#FFFFFF" fill-rule="evenodd"/><text font-family="DengXian,DengXian_MSFontService,sans-serif" font-weight="400" font-size="24" transform="translate(581.667 296)">TCP/IP<tspan x="68.6667" y="0">网络</tspan></text><path d="M414.5 360.5 440.5 334.5 440.5 347.5 474.5 347.5 474.5 334.5 500.5 360.5 474.5 386.5 474.5 373.5 440.5 373.5 440.5 386.5Z" stroke="#000000" stroke-miterlimit="8" fill="#FFFFFF" fill-rule="evenodd"/><text font-family="DengXian,DengXian_MSFontService,sans-serif" font-weight="400" font-size="21" transform="translate(436.67 367)">FCIP</text><path d="M780.5 360.5 806.5 334.5 806.5 347.5 840.5 347.5 840.5 334.5 866.5 360.5 840.5 386.5 840.5 373.5 806.5 373.5 806.5 386.5Z" stroke="#000000" stroke-miterlimit="8" fill="#FFFFFF" fill-rule="evenodd"/><text font-family="DengXian,DengXian_MSFontService,sans-serif" font-weight="400" font-size="21" transform="translate(802.83 367)">FCIP</text><path d="M370.5 360.5 449.5 281.5 449.5 321 826.5 321 826.5 281.5 905.5 360.5 826.5 439.5 826.5 400 449.5 400 449.5 439.5Z" stroke="#4472C4" stroke-miterlimit="8" stroke-dasharray="3 1" fill="none" fill-rule="evenodd"/><text fill="#4472C4" font-family="DengXian,DengXian_MSFontService,sans-serif" font-weight="400" font-size="21" transform="translate(594.785 367)">虚拟通道</text></g></svg>