<svg width="773" height="505" xmlns="http://www.w3.org/2000/svg" xmlns:xlink="http://www.w3.org/1999/xlink" overflow="hidden"><defs><clipPath id="clip0"><path d="M243 118 1016 118 1016 623 243 623Z" fill-rule="evenodd" clip-rule="evenodd"/></clipPath></defs><g clip-path="url(#clip0)" transform="translate(-243 -118)"><rect x="244.5" y="119.5" width="212" height="100" stroke="#000000" stroke-miterlimit="8" fill="#FFFFFF"/><text font-family="DengXian,DengXian_MSFontService,sans-serif" font-weight="400" font-size="24" transform="translate(312.676 177)">FC<tspan x="26.3333" y="0">设备</tspan></text><path d="M478.5 370.5C478.5 287.105 546.329 219.5 630 219.5 713.671 219.5 781.5 287.105 781.5 370.5 781.5 453.895 713.671 521.5 630 521.5 546.329 521.5 478.5 453.895 478.5 370.5Z" stroke="#000000" stroke-miterlimit="8" fill="#FFFFFF" fill-rule="evenodd"/><text font-family="DengXian,DengXian_MSFontService,sans-serif" font-weight="400" font-size="24" transform="translate(571.007 378)">TCP/IP<tspan x="68.6666" y="0">网络</tspan></text><rect x="803.5" y="119.5" width="212" height="100" stroke="#000000" stroke-miterlimit="8" fill="#FFFFFF"/><text font-family="DengXian,DengXian_MSFontService,sans-serif" font-weight="400" font-size="24" transform="translate(871.671 177)">FC<tspan x="26.3333" y="0">设备</tspan></text><rect x="803.5" y="521.5" width="212" height="100" stroke="#000000" stroke-miterlimit="8" fill="#FFFFFF"/><text font-family="DengXian,DengXian_MSFontService,sans-serif" font-weight="400" font-size="24" transform="translate(871.671 579)">FC<tspan x="26.3334" y="0">设备</tspan></text><rect x="244.5" y="521.5" width="212" height="100" stroke="#000000" stroke-miterlimit="8" fill="#FFFFFF"/><text font-family="DengXian,DengXian_MSFontService,sans-serif" font-weight="400" font-size="24" transform="translate(312.676 579)">FC<tspan x="26.3333" y="0">设备</tspan></text><path d="M441.815 203.02 501.853 196.964 488.358 213.488 533.277 250.176 546.772 233.652 552.828 293.69 492.79 299.746 506.286 283.223 461.366 246.535 447.871 263.058Z" stroke="#000000" stroke-width="1.33333" stroke-miterlimit="8" fill="#FFFFFF" fill-rule="evenodd"/><text font-family="DengXian,DengXian_MSFontService,sans-serif" font-weight="400" font-size="19" transform="matrix(0.774498 0.632577 -0.632577 0.774498 487.246 233)">iFCP<tspan x="-20.0504" y="22.8321">协议转换</tspan></text><path d="M709.071 294.19 714.026 234.051 727.822 250.325 772.062 212.821 758.266 196.547 818.405 201.503 813.45 261.642 799.654 245.368 755.414 282.872 769.21 299.146Z" stroke="#000000" stroke-width="1.33333" stroke-miterlimit="8" fill="#FFFFFF" fill-rule="evenodd"/><text font-family="DengXian,DengXian_MSFontService,sans-serif" font-weight="400" font-size="19" transform="matrix(0.762789 -0.646648 0.646648 0.762789 746.958 255)">iFCP<tspan x="-19.6411" y="22.6788">协议转换</tspan></text><path d="M708.47 447.636 768.508 441.581 755.013 458.104 799.932 494.792 813.427 478.269 819.483 538.307 759.445 544.362 772.94 527.839 728.021 491.151 714.526 507.674Z" stroke="#000000" stroke-width="1.33333" stroke-miterlimit="8" fill="#FFFFFF" fill-rule="evenodd"/><text font-family="DengXian,DengXian_MSFontService,sans-serif" font-weight="400" font-size="19" transform="matrix(0.774498 0.632577 -0.632577 0.774498 753.901 478)">iFCP<tspan x="-20.0504" y="22.8321">协议转换</tspan></text><path d="M430.627 547.37 435.582 487.232 449.378 503.505 493.618 466.001 479.822 449.727 539.961 454.683 535.005 514.822 521.21 498.548 476.97 536.052 490.765 552.326Z" stroke="#000000" stroke-width="1.33333" stroke-miterlimit="8" fill="#FFFFFF" fill-rule="evenodd"/><text font-family="DengXian,DengXian_MSFontService,sans-serif" font-weight="400" font-size="19" transform="matrix(0.762789 -0.646648 0.646648 0.762789 468.514 508)">iFCP<tspan x="-20.2877" y="23.4416">协议转换</tspan></text><path d="M560.168 294.021 703.078 294.478 703.074 295.478 560.165 295.021ZM561.487 298.526 553.5 294.5 561.513 290.526ZM701.756 290.974 709.743 295 701.73 298.974Z" fill="#4472C4"/><path d="M5.17943 4.22619 164.618 155.541 163.929 156.266 4.49104 4.95154ZM3.04921 8.40847 0 0 8.5563 2.60571ZM166.06 152.085 169.11 160.493 160.553 157.887Z" fill="#4472C4" transform="matrix(1 0 0 -1 540.5 454.993)"/><path d="M704.051 444.113 557.888 299.544 558.592 298.833 704.754 443.402ZM706.267 439.976 709.142 448.446 700.642 445.664ZM556.375 302.97 553.5 294.5 562.001 297.282Z" fill="#4472C4"/><path d="M0.526085 6.66434 1.07443 146.778 0.0744388 146.782-0.473907 6.66825ZM-3.96866 8.01559 0 0 4.03128 7.98428ZM4.56919 145.431 0.600525 153.446-3.43075 145.462Z" fill="#4472C4" transform="matrix(1 0 0 -1 708.5 447.946)"/><path d="M1.02953 6.60553 12.8343 154.307 11.8375 154.387 0.0327054 6.6852ZM-3.34994 8.29325 0 0 4.62464 7.6559ZM16.2169 152.699 12.867 160.993 8.24235 153.337Z" fill="#4472C4" transform="matrix(1 0 0 -1 540.5 455.493)"/><path d="M6.68205-0.221003 161.869 6.2687 161.827 7.26783 6.64026 0.778124ZM7.82588 4.33076 0 0 8.16014-3.66225ZM160.683 2.71606 168.509 7.04682 160.349 10.7091Z" fill="#4472C4" transform="matrix(-1 -8.74228e-08 -8.74228e-08 1 709.009 448.5)"/></g></svg>