<svg width="661" height="443" xmlns="http://www.w3.org/2000/svg" xmlns:xlink="http://www.w3.org/1999/xlink" overflow="hidden"><defs><clipPath id="clip0"><rect x="251" y="108" width="661" height="443"/></clipPath></defs><g clip-path="url(#clip0)" transform="translate(-251 -108)"><path d="M683.5 209C683.5 167.303 717.303 133.5 759 133.5 800.698 133.5 834.5 167.303 834.5 209 834.5 250.698 800.698 284.5 759 284.5 717.303 284.5 683.5 250.698 683.5 209Z" stroke="#2F528F" stroke-width="1.33333" stroke-miterlimit="8" fill="#4472C4" fill-rule="evenodd"/><text fill="#FFFFFF" font-family="Cambria Math,Cambria Math_MSFontService,sans-serif" font-weight="400" font-size="24" transform="translate(734.813 202)">𝑣<tspan font-size="18" x="13.62" y="5">𝑇𝑀</tspan><tspan x="13.74" y="29">𝑞</tspan></text><path d="M683.5 450C683.5 408.303 717.303 374.5 759 374.5 800.698 374.5 834.5 408.303 834.5 450 834.5 491.698 800.698 525.5 759 525.5 717.303 525.5 683.5 491.698 683.5 450Z" stroke="#2F528F" stroke-width="1.33333" stroke-miterlimit="8" fill="#4472C4" fill-rule="evenodd"/><text fill="#FFFFFF" font-family="Cambria Math,Cambria Math_MSFontService,sans-serif" font-weight="400" font-size="24" transform="translate(728.69 443)">𝑣<tspan font-size="18" x="12.7667" y="5">𝑡𝑎𝑝𝑒</tspan><tspan x="0.580017" y="31">(</tspan>𝑇<tspan x="25.44" y="31">,</tspan><tspan x="34.44" y="31">𝑖</tspan><tspan x="42.8666" y="31">)</tspan></text><path d="M407.5 330C407.5 288.303 441.303 254.5 483 254.5 524.698 254.5 558.5 288.303 558.5 330 558.5 371.698 524.698 405.5 483 405.5 441.303 405.5 407.5 371.698 407.5 330Z" stroke="#2F528F" stroke-width="1.33333" stroke-miterlimit="8" fill="#4472C4" fill-rule="evenodd"/><text fill="#FFFFFF" font-family="Cambria Math,Cambria Math_MSFontService,sans-serif" font-weight="400" font-size="24" transform="translate(466.476 337)">𝑣<tspan font-size="18" x="12.7667" y="5">𝐹</tspan></text><path d="M760 284 760 367.057 758 367.057 758 284ZM763 365.724 759 373.724 755 365.724Z" fill="#4472C4"/><path d="M834 208 859 208 859 450.905 842 450.905 842 448.905 858 448.905 857 449.905 857 209 858 210 834 210ZM843.333 453.905 835.333 449.905 843.333 445.905Z" fill="#4472C4"/><path d="M684.333 450.905 659.333 450.905 659.333 208 676.333 208 676.333 210 660.333 210 661.333 209 661.333 449.905 660.333 448.905 684.333 448.905ZM675 205 683 209 675 213Z" fill="#4472C4"/><text font-family="Cambria Math,Cambria Math_MSFontService,sans-serif" font-weight="400" font-size="24" transform="translate(587.759 192)">𝑡<tspan font-size="18" x="9.14667" y="5">𝑑</tspan><tspan font-size="18" x="20.8666" y="5">:</tspan><tspan font-size="18" x="25.5333" y="5">𝑑𝑎𝑡𝑎</tspan><tspan font-size="18" x="66.7933" y="5">=</tspan><tspan font-size="18" x="79.46" y="5">𝑋</tspan><tspan x="251.418" y="281">𝑡</tspan><tspan font-size="18" x="260.565" y="286">𝑢</tspan><tspan font-size="18" x="272.198" y="286">:</tspan><tspan font-size="18" x="276.865" y="286">𝑝</tspan><tspan font-size="18" x="288.078" y="286">=</tspan><tspan font-size="18" x="300.745" y="286">𝑋′</tspan><tspan x="119.722" y="145">𝑡</tspan><tspan font-size="18" x="128.869" y="150">𝑑</tspan><tspan font-size="18" x="140.589" y="150">:</tspan><tspan font-size="18" x="145.256" y="150">ℎ𝑒𝑎𝑑</tspan><tspan font-size="18" x="188.309" y="150">=</tspan><tspan font-size="18" x="200.976" y="150">±</tspan><tspan font-size="18" x="214.142" y="150">1</tspan></text><path d="M757.26 133 757.26 109 758.26 110 482 110 483 109 483 246.786 481 246.786 481 108 759.26 108 759.26 133ZM486 245.452 482 253.452 478 245.452Z" fill="#4472C4"/><path d="M0 1-24.0003 1-23.0003 0-23.0003 276.26-24.0003 275.26 113.786 275.26 113.786 277.26-25.0003 277.26-25.0003-1 0-1ZM112.453 272.26 120.453 276.26 112.453 280.26Z" fill="#4472C4" transform="matrix(-6.12323e-17 -1 -1 6.12323e-17 758.26 525.452)"/><text font-family="Cambria Math,Cambria Math_MSFontService,sans-serif" font-weight="400" font-size="24" transform="translate(487.496 427)">𝑡<tspan font-size="18" x="9.14667" y="5">𝑑</tspan><tspan font-size="18" x="20.8667" y="5">:</tspan><tspan font-size="18" x="25.5333" y="5">𝑡𝑎𝑝𝑒</tspan><tspan font-size="18" x="65.2267" y="5">=</tspan><tspan font-size="18" x="77.8933" y="5">𝑇</tspan><tspan x="0" y="-188">𝑡</tspan><tspan font-size="18" x="9.14667" y="-184">𝑑</tspan><tspan font-size="18" x="20.8667" y="-184">:</tspan><tspan font-size="18" x="25.5333" y="-184">𝑠𝑡𝑎𝑡𝑒</tspan><tspan font-size="18" x="70.3933" y="-184">=</tspan><tspan font-size="18" x="83.06" y="-184">𝑞</tspan></text><path d="M406.563 330 281.667 330 281.667 328 406.563 328ZM283 333 275 329 283 325Z" fill="#4472C4"/><text font-family="Cambria Math,Cambria Math_MSFontService,sans-serif" font-weight="400" font-size="24" transform="translate(255.089 337)">𝑇</text></g></svg>