<svg width="760" height="356" xmlns="http://www.w3.org/2000/svg" xmlns:xlink="http://www.w3.org/1999/xlink" overflow="hidden"><defs><clipPath id="clip0"><rect x="125" y="189" width="760" height="356"/></clipPath></defs><g clip-path="url(#clip0)" transform="translate(-125 -189)"><path d="M126.5 325.5C126.5 298.99 147.99 277.5 174.5 277.5 201.01 277.5 222.5 298.99 222.5 325.5 222.5 352.01 201.01 373.5 174.5 373.5 147.99 373.5 126.5 352.01 126.5 325.5Z" stroke="#2F528F" stroke-width="1.33333" stroke-miterlimit="8" fill="#4472C4" fill-rule="evenodd"/><text fill="#FFFFFF" font-family="DengXian,DengXian_MSFontService,sans-serif" font-weight="400" font-size="24" transform="translate(166.556 333)">A</text><path d="M340.5 238.5C340.5 211.99 361.99 190.5 388.5 190.5 415.01 190.5 436.5 211.99 436.5 238.5 436.5 265.01 415.01 286.5 388.5 286.5 361.99 286.5 340.5 265.01 340.5 238.5Z" stroke="#2F528F" stroke-width="1.33333" stroke-miterlimit="8" fill="#4472C4" fill-rule="evenodd"/><text fill="#FFFFFF" font-family="DengXian,DengXian_MSFontService,sans-serif" font-weight="400" font-size="24" transform="translate(380.889 246)">B</text><path d="M363.5 496.5C363.5 469.99 384.99 448.5 411.5 448.5 438.01 448.5 459.5 469.99 459.5 496.5 459.5 523.01 438.01 544.5 411.5 544.5 384.99 544.5 363.5 523.01 363.5 496.5Z" stroke="#2F528F" stroke-width="1.33333" stroke-miterlimit="8" fill="#4472C4" fill-rule="evenodd"/><text fill="#FFFFFF" font-family="DengXian,DengXian_MSFontService,sans-serif" font-weight="400" font-size="24" transform="translate(403.25 504)">C</text><path d="M604.5 268.5C604.5 241.99 625.99 220.5 652.5 220.5 679.01 220.5 700.5 241.99 700.5 268.5 700.5 295.01 679.01 316.5 652.5 316.5 625.99 316.5 604.5 295.01 604.5 268.5Z" stroke="#2F528F" stroke-width="1.33333" stroke-miterlimit="8" fill="#4472C4" fill-rule="evenodd"/><text fill="#FFFFFF" font-family="DengXian,DengXian_MSFontService,sans-serif" font-weight="400" font-size="24" transform="translate(644.195 276)">D</text><path d="M788.5 408.5C788.5 381.99 809.99 360.5 836.5 360.5 863.01 360.5 884.5 381.99 884.5 408.5 884.5 435.01 863.01 456.5 836.5 456.5 809.99 456.5 788.5 435.01 788.5 408.5Z" stroke="#2F528F" stroke-width="1.33333" stroke-miterlimit="8" fill="#4472C4" fill-rule="evenodd"/><text fill="#FFFFFF" font-family="DengXian,DengXian_MSFontService,sans-serif" font-weight="400" font-size="24" transform="translate(829.556 416)">E</text><path d="M0.125039-0.308992 125.337 50.3603 125.087 50.9783-0.125039 0.308992ZM125.477 46.4612 131.392 53.1701 122.476 53.877Z" fill="#4472C4" transform="matrix(1 0 0 -1 208.5 291.67)"/><path d="M208.674 359.215 371.544 458.529 371.197 459.098 208.327 359.785ZM372.314 454.705 377.062 462.285 368.149 461.535Z" fill="#4472C4"/><path d="M0.00677438-0.333264 176.289 3.25009 176.276 3.91662-0.00677438 0.333264ZM175.031-0.442914 182.948 3.71885 174.868 7.55543Z" fill="#4472C4" transform="matrix(1 0 0 -1 436.5 239.219)"/><path d="M700.741 268.269 797.299 369.07 796.818 369.531 700.259 268.731ZM799.025 365.571 801.67 374.115 793.247 371.105Z" fill="#4472C4"/><path d="M0.225448-0.245529 169.21 154.919 168.759 155.41-0.225448 0.245529ZM170.708 151.316 173.896 159.673 165.298 157.209Z" fill="#4472C4" transform="matrix(1 0 0 -1 445.5 462.174)"/><path d="M0.0861584-0.322006 322.536 85.9552 322.364 86.5992-0.0861584 0.322006ZM322.195 82.0681 328.889 88 320.127 89.7963Z" fill="#4472C4" transform="matrix(1 0 0 -1 459.5 496.5)"/><text font-family="DengXian,DengXian_MSFontService,sans-serif" font-weight="400" font-size="24" transform="translate(257.703 261)">10<tspan x="253.939" y="-32">10</tspan><tspan x="491.092" y="55">10</tspan><tspan x="273.593" y="99">10</tspan><tspan x="370.4" y="181">5</tspan><tspan x="27.4523" y="147">10</tspan></text></g></svg>